<svg class="icon" viewBox="0 0 1024 1024" xmlns="http://www.w3.org/2000/svg" width="200" height="200"><path d="M527.7 816.3c-24.6-23.7-33.4-55.7-23.7-85.5 9.8-29.7 35.8-50.4 69.7-55.2l85.9-12.5c-3.5-2.4-6.9-4.9-10.1-7.7-9.7-8.1-17.6-18.1-23.1-29.4-4.6-9.6-7.3-20-8-30.7-.6-10.3 0-20.4 1.9-30.3 1.4-7.9 3.5-14.8 6.1-20.4 2.4-5.4 5.8-10.3 10-14.4 4.1-3.9 8.6-7.7 14.1-11.3 5.5-3.7 10.9-7.9 17.1-13.4 5.2-4.7 10-11.1 14.4-19.4 4.2-8.2 8-16.7 11.4-25.3 3.5-10.1 6.5-20.3 9-30.6 7.1-2.2 13.5-5.9 18.9-11 5.3-4.6 10-11.1 14.5-19.4 4.1-8.4 7.5-19.3 9.4-33.2 1.4-10.7 1.2-19.4-.4-26.8-1.3-6.3-3.4-12.3-6.4-17.9-2.3-5.1-6.1-9.3-11-12 .7-26.6-1-53.2-5-79.5-3.7-24.5-9.5-48.5-17.5-71.9-8.3-25.3-21-49-37.5-69.9-8.6-10.4-18.4-19.6-29.3-27.4-12.8-9.4-26.5-17.6-40.9-24.3-15.9-7.5-32.5-13.5-49.6-17.9-18.2-4.7-36.9-7-55.6-6.9-15.4 0-31.3 1.5-47.5 4.1-16.6 2.9-32.9 7.6-48.5 13.9-16 6.6-31.9 15.7-47.5 27.3-15.7 11.6-29.8 26.4-42.5 44.3-13.6 19.7-23.9 41.5-30.5 64.5-13.6 46.5-19.8 94.8-18.6 143.3-5.3 6.2-9.4 13.3-12.2 21-2.7 6.6-4.5 14.4-5.4 23.3-1.3 8.9 0 19.2 3.3 30.3 3.5 11.3 7.4 19.8 12.1 25.8 4.7 6.1 9 10.7 13.1 14 4.7 3.5 9.4 5.6 14.1 7 3.3 10.5 6.7 20.8 10 30.6 3.3 8.6 6.9 16.9 10.9 25.3 3.3 7.4 8.1 14 14.1 19.4 11.5 9.4 21.5 18.3 30.5 26.8s14.1 20.8 15.4 36.7c.6 10.1 1 19.4 1 28 0 8.8-1.6 16.9-4.5 24.9-3.7 9-9.1 17.1-16.1 23.9-9.7 9.6-20.7 18-32.5 24.8-18.6 11.9-39 20.6-60.4 25.9-23.1 6-123.6 40.4-145.4 47.8-20.4 6.6-39.6 16.6-56.6 29.7-15.8 12.5-25.8 31.1-29.9 55.6-6.6 42.4-8 49.2-4.5 76.4 3.6 27 9 43.2 16.4 48.6 6.1 4.4 23.3 9.9 52.1 16.2 28.8 6.5 209.6 40.3 419.6 40.3 27.4 0 53.8-.6 79.3-1.8-1.2-9.3-1-18.8.6-28l-.1.1 16.9-97.2-71-68.6zm469.5-73.5l-104.7-15.1c-17.8-3.6-33.2-14.7-42.3-30.5L803.4 603c-3.5-7.2-8.4-10.9-13.1-10.9-4.7 0-9.4 3.7-13.1 10.9l-46.7 94.2c-7.3 14.4-26.3 28.1-42.3 30.5l-104.7 15.1c-16 2.4-19.8 13.4-8 24.7l75.8 73.3c12.2 13.4 18.1 31.4 16 49.4l-17.8 103.5c-2 11.4 2.5 18.3 10.6 18.3 3.1 0 6.6-1 10.6-3.1l93.5-49c8.1-3.8 17-5.8 26-5.6 9.4 0 19 1.9 26.1 5.6l93.5 49c3.9 2.1 7.6 3.1 10.6 3.1 8 0 12.5-6.8 10.5-18.3L913 890.1c-2-18 3.8-36 16.1-49.4l75.8-73.3c11.8-11.1 8.3-22.2-7.7-24.6z"/></svg>