<svg class="icon" viewBox="0 0 1024 1024" xmlns="http://www.w3.org/2000/svg" width="200" height="200"><path d="M963.91 289.233c16.244 14.895 18.153 41.123 4.259 58.555a629.574 629.574 0 0 1-110.01 107.799l84.014 90.112c14.825 16.524 14.406 42.798-.977 58.74a36.84 36.84 0 0 1-53.76 0l-97.164-104.168a571.113 571.113 0 0 1-140.102 56.482l44.917 132.213c7.284 21.574-3.072 45.382-23.157 53.248-20.107 7.843-42.31-3.258-49.617-24.832l-49.571-146.34a567.575 567.575 0 0 1-122.135.49l-49.548 145.85c-7.308 21.55-29.51 32.675-49.618 24.832-20.084-7.843-30.44-31.674-23.133-53.248l44.59-131.026a574.976 574.976 0 0 1-141.427-55.924l-95.535 102.4a36.864 36.864 0 0 1-54.714-1 43.753 43.753 0 0 1 0-57.717l82.06-88.018A623.43 623.43 0 0 1 55.667 354.025c-13.777-17.525-11.706-43.73 4.608-58.508 15.896-14.382 39.517-12.753 53.528 3.7 99.793 122.368 244.014 192.466 395.566 192.256 155.811 0 300.567-73.076 399.965-197.655 13.894-17.454 38.33-19.48 54.575-4.585z"/></svg>
