<svg class="icon" viewBox="0 0 1024 1024" xmlns="http://www.w3.org/2000/svg" width="200" height="200"><path d="M901.1 857.6l-3.5-19.6-76.5-433.5c-1.7-9.5-10-16.5-19.7-16.5H222.7c-9.7 0-18 7-19.7 16.5L126.4 838l-3.5 19.6c-6.5 36.7 21.8 70.4 59.2 70.4h659.8c37.4 0 65.7-33.7 59.2-70.4z" fill="#FFF"/><path d="M215.1 913c-13.4 0-26-5.9-34.6-16.1-8.6-10.2-12.2-23.6-9.8-36.7l1.3-7.2 719-18 6.3 25.2c2.3 13.1-1.3 26.5-9.8 36.7-8.6 10.2-20.1 34.1-33.5 34.1l-638.9-18z" fill="#9FD382"/><path d="M177.3 823l73.5-415.9c.4-2.4 2.5-4.1 4.9-4.1l551.5-15c2.4 0 20.7 16.7 21.1 19.1L903 843l-725.7-20z" fill="#FFCD44"/><path d="M572 523H452c-8.3 0-15-6.7-15-15s6.7-15 15-15h120c8.3 0 15 6.7 15 15s-6.7 15-15 15z" fill="#FFF"/><path d="M896 845l-44 8 1.3 7.2c2.3 13.1-1.3 26.5-9.8 36.7-8.6 10.2-21.2 16.1-34.6 16.1l33.1 13c13.4 0 31.4-5.8 40-16s14-65 14-65z" fill="#779948"/><path d="M818 410c-.4-2.4-9.6-19-12-19l-37.6 12c2.4 0 4.5 1.7 4.9 4.1L846.7 823l50.3 15-79-428z" fill="#FFA51E"/><path d="M915.8 855l-3.5-19.6-76.5-433.5c-3-16.8-17.5-28.9-34.5-28.9H717V266c0-49.7-21.5-96.4-60.6-131.4C617.7 100 566.4 81 512 81s-105.7 19-144.4 53.6c-39.1 35-60.6 81.7-60.6 131.4v107h-84.3c-17 0-31.5 12.2-34.5 28.9l-76.6 433.5-3.5 19.6c-3.9 21.9 2.1 44.2 16.4 61.2 14.3 17.1 35.3 26.8 57.5 26.8h659.8c22.3 0 43.2-9.8 57.5-26.8 14.4-17.1 20.4-39.4 16.5-61.2zM337 266c0-85.5 78.5-155 175-155s175 69.5 175 155v107H337V266zM217.7 407.1c.4-2.4 2.5-4.1 4.9-4.1h578.8c2.4 0 4.5 1.7 4.9 4.1L879.7 823H144.3l73.4-415.9zm658.8 489.8c-8.6 10.2-21.2 16.1-34.6 16.1H182.1c-13.4 0-26-5.9-34.6-16.1-8.6-10.2-12.2-23.6-9.8-36.7l1.3-7.2h746l1.3 7.2c2.3 13.1-1.3 26.5-9.8 36.7z" fill="#1C0900"/></svg>