<svg class="icon" viewBox="0 0 1024 1024" xmlns="http://www.w3.org/2000/svg" width="200" height="200"><path d="M896.41 571.904l-302.08 302.08c-42.65 42.65-111.821 42.65-154.47 0L127.845 561.971c-103.219-103.219-103.219-270.54 0-373.76l5.53-5.53c103.22-103.219 270.54-103.219 373.76 0L896.41 571.905z" fill="#F85F69"/><path d="M138.035 571.7l302.08 302.08c42.65 42.649 111.821 42.649 154.47 0L906.395 561.97c103.219-103.219 103.219-270.54 0-373.76l-5.53-5.53c-103.22-103.219-270.54-103.219-373.76 0L138.035 571.7z" fill="#F85F69"/><path d="M138.035 571.7l298.65 298.649c44.493 44.493 116.633 44.544 161.177.102l298.599-298.598L517.12 192.614 138.035 571.7z" fill="#F33B3D"/><path d="M279.91 544.614a38.16 38.16 0 0 1-23.961-8.448c-117.965-94.412-101.888-192.102-73.78-234.905 11.623-17.715 35.431-22.682 53.146-11.06 17.715 11.623 22.682 35.431 11.06 53.146-3.79 5.94-33.946 59.597 57.548 132.864a38.395 38.395 0 0 1 5.94 53.965 38.026 38.026 0 0 1-29.953 14.438z" fill="#F7F8F8"/></svg>