<svg class="icon" viewBox="0 0 1024 1024" xmlns="http://www.w3.org/2000/svg" width="200" height="200"><path d="M774.945 217.472c-153.447-153.445-403.141-152.253-556.19 3.247-150.405 152.812-150 399.937.85 551.242 123.333 123.707 309.099 147.262 456.799 70.878 16.091-8.323 35.662-5.401 48.43 7.368L799.2 924.57c17.485 17.487 45.888 17.438 63.434-.113l64.383-64.378c17.544-17.551 17.596-45.951.111-63.44l-74.366-74.361c-12.764-12.768-15.693-32.335-7.372-48.423 76.305-147.535 52.893-333.047-70.445-456.383z" fill="#FFA820"/><path d="M482.928 103.586c-96.091 3.89-191.137 42.927-264.173 117.133-45.116 45.838-76.644 100.166-94.631 157.844 58.277-148.084 194.892-256.753 358.804-274.977zm444.201 693.053l-24.463-24.462a440.376 440.376 0 0 1-125.91 129.949L799.2 924.57c17.485 17.487 45.888 17.438 63.434-.113l64.383-64.378c17.545-17.552 17.597-45.951.112-63.44z" fill="#FEAC33"/><path d="M135.219 518.308c0-208.765 169.237-378.002 378.002-378.002 193.947 0 353.777 146.067 375.489 334.194-4.521-93.557-42.429-185.692-113.766-257.028-80.221-80.22-186.746-118.147-292.017-113.886-163.911 18.224-300.526 126.893-358.803 274.976-41.977 134.607-10.12 287.479 95.481 393.399 35.209 35.316 75.512 62.455 118.559 81.451-120.628-63.145-202.945-189.51-202.945-335.104zm767.447 253.87l-49.903-49.899a41.079 41.079 0 0 1-10.474-17.838c-31.684 55.895-77.195 102.919-131.888 136.424a41.033 41.033 0 0 1 14.433 9.343l51.922 51.919a440.4 440.4 0 0 0 125.91-129.949z" fill="#FEB133"/><path d="M842.289 704.44a41.699 41.699 0 0 1 3.102-30.585c32.171-62.203 46.615-131.157 43.32-199.356-21.712-188.127-181.541-334.194-375.489-334.194-208.765 0-378.002 169.237-378.002 378.002 0 145.595 82.317 271.959 202.946 335.105 107.742 47.545 232.705 44.004 338.24-10.574 10.802-5.587 23.169-6.099 33.997-1.974 54.691-33.505 100.202-80.529 131.886-136.424zM494.572 815.699c-175.617 0-317.982-142.365-317.982-317.982s142.365-317.982 317.982-317.982S812.554 322.1 812.554 497.717 670.189 815.699 494.572 815.699z" fill="#FEB633"/><path d="M494.572 179.735c-175.617 0-317.982 142.365-317.982 317.982s142.365 317.982 317.982 317.982 317.982-142.365 317.982-317.982-142.365-317.982-317.982-317.982zm-18.65 555.353c-142.468 0-257.962-115.493-257.962-257.962s115.493-257.962 257.962-257.962 257.962 115.493 257.962 257.962S618.39 735.088 475.922 735.088z" fill="#FFBC34"/><path d="M475.922 219.165c-142.468 0-257.962 115.493-257.962 257.962s115.493 257.962 257.962 257.962 257.962-115.493 257.962-257.962S618.39 219.165 475.922 219.165zm-18.65 435.313c-109.32 0-197.941-88.621-197.941-197.941s88.621-197.941 197.941-197.941 197.941 88.621 197.941 197.941-88.621 197.941-197.941 197.941z" fill="#FFC134"/><path d="M457.272 258.595c-109.32 0-197.941 88.621-197.941 197.941s88.621 197.941 197.941 197.941 197.941-88.621 197.941-197.941-88.621-197.941-197.941-197.941zm-18.649 315.272c-76.172 0-137.921-61.749-137.921-137.921s61.749-137.921 137.921-137.921 137.921 61.749 137.921 137.921-61.75 137.921-137.921 137.921z" fill="#FFC634"/><path d="M300.702 435.946a137.921 137.921 0 1 0 275.842 0 137.921 137.921 0 1 0-275.842 0z" fill="#FFCB34"/><path d="M498.872 121.235c48.426 0 95.602 9.164 140.218 27.238 46.177 18.706 87.603 46.203 123.127 81.727 28.792 28.792 52.467 61.715 70.369 97.857 17.311 34.949 28.965 72.341 34.638 111.137a375.293 375.293 0 0 1-1.064 115.526c-6.395 38.773-18.762 76.075-36.756 110.867-11.986 23.172-7.714 51.07 10.633 69.421l74.364 74.359c10.439 10.441 10.388 27.482-.109 37.984l-64.386 64.381c-5.107 5.108-11.886 7.922-19.09 7.922-7.143 0-13.85-2.774-18.887-7.811l-74.365-74.362c-11.177-11.178-26.066-17.335-41.923-17.335-9.512 0-19.023 2.319-27.504 6.705-52.829 27.321-112.325 41.762-172.057 41.762-48.516 0-95.771-9.197-140.454-27.336-46.254-18.776-87.729-46.373-123.272-82.024-143.84-144.274-144.185-380.196-.768-525.907 35.953-36.529 77.982-64.818 124.92-84.082 45.311-18.599 93.211-28.029 142.366-28.029m0-18c-101.46 0-203.041 39.174-280.117 117.484-150.405 152.812-150 399.937.85 551.242 76.217 76.448 176.288 114.651 276.474 114.651 61.932 0 123.901-14.594 180.325-43.774a41.83 41.83 0 0 1 19.235-4.693c10.714 0 21.265 4.132 29.194 12.062L799.2 924.57c8.722 8.723 20.162 13.083 31.615 13.083 11.506 0 23.026-4.4 31.819-13.196l64.383-64.378c17.544-17.551 17.596-45.951.111-63.44l-74.366-74.361c-12.764-12.768-15.693-32.335-7.372-48.423 76.304-147.535 52.892-333.047-70.446-456.384-76.17-76.169-176.063-114.236-276.072-114.236z" fill="#FFA820"/><path d="M500.179 288.647c110.402 0 199.9 89.498 199.9 199.898 0 110.402-89.498 199.9-199.9 199.9-110.4 0-199.898-89.498-199.898-199.9 0-110.4 89.497-199.898 199.898-199.898z" fill="#99d3e9" data-spm-anchor-id="a313x.7781069.0.i7" class="selected"/><path d="M223.693 336.053a17.92 17.92 0 0 1-10.285-3.24c-8.152-5.688-10.15-16.909-4.461-25.062 42.858-61.422 90.059-96.521 92.047-97.984 8.007-5.895 19.273-4.183 25.167 3.822 5.892 8.002 4.185 19.264-3.813 25.161-.769.571-44.743 33.514-83.878 89.602-3.499 5.015-9.093 7.701-14.777 7.701zm-35.607 61.74c-2.758 0-5.555-.636-8.179-1.977-8.852-4.525-12.358-15.37-7.833-24.221l5.121-10.016c4.525-8.851 15.37-12.357 24.221-7.833 8.852 4.525 12.358 15.37 7.833 24.221l-5.121 10.016c-3.184 6.227-9.497 9.81-16.042 9.81z" fill="#FFF"/></svg>
