<svg class="icon" viewBox="0 0 1024 1024" xmlns="http://www.w3.org/2000/svg" width="200" height="200"><path d="M66 485.5a399.2 315.1 0 1 0 798.4 0 399.2 315.1 0 1 0-798.4 0z" fill="#ff6fd8" data-spm-anchor-id="a313x.7781069.0.i6"/><path d="M198.6 666.6L148 866.1l197.3-80z" fill="#ff6fd8" data-spm-anchor-id="a313x.7781069.0.i7"/><path d="M906.9 528.5C900.4 672.9 756.6 836 564.7 836c-30.9 0-60 1.3-88.6-4.3 50.1 34.6 118.4 43.7 191.5 43.7 155.9 0 269.3-84.5 276.1-212.4 3-56.3-19-106.4-36.8-134.5z" fill="#c430db" data-spm-anchor-id="a313x.7781069.0.i8"/><path d="M890.3 764.4l35.8 135.5-139.5-54.3z" fill="#c430db" data-spm-anchor-id="a313x.7781069.0.i11"/><path d="M263 470a46.6 46.6 0 1 0 93.2 0 46.6 46.6 0 1 0-93.2 0zm156 0a46.6 46.6 0 1 0 93.2 0 46.6 46.6 0 1 0-93.2 0zm155.2 0a46.6 46.6 0 1 0 93.2 0 46.6 46.6 0 1 0-93.2 0z" fill="#FFF"/></svg>