<svg width="250" height="157" viewBox="0 0 250 157" xmlns="http://www.w3.org/2000/svg"><defs><linearGradient x1="50%" y1="100%" x2="50%" y2="0%" id="a"><stop stop-color="#F5F7FA" stop-opacity="0" offset="0%"/><stop stop-color="#D9DEE4" offset="100%"/></linearGradient><linearGradient x1="50%" y1="50%" x2="50%" y2="0%" id="b"><stop stop-color="#F5F7FA" stop-opacity="0" offset="0%"/><stop stop-color="#D9DEE4" offset="100%"/></linearGradient><linearGradient x1="50%" y1="50%" x2="50%" y2="0%" id="c"><stop stop-color="#F5F7FA" stop-opacity="0" offset="0%"/><stop stop-color="#D9DEE4" offset="100%"/></linearGradient><linearGradient x1="70.998%" y1="56.749%" x2="0%" y2="56.749%" id="d"><stop stop-color="#D9DEE4" offset="0%"/><stop stop-color="#F5F7FA" offset="100%"/></linearGradient><filter x="-13.8%" y="-41.6%" width="127.5%" height="183.1%" filterUnits="objectBoundingBox" id="e"><feGaussianBlur stdDeviation=".655" in="SourceGraphic"/></filter><linearGradient x1="70.998%" y1="56.749%" x2="0%" y2="56.749%" id="f"><stop stop-color="#D9DEE4" offset="0%"/><stop stop-color="#F5F7FA" offset="100%"/></linearGradient><filter x="-13.8%" y="-41.6%" width="127.5%" height="183.1%" filterUnits="objectBoundingBox" id="g"><feGaussianBlur stdDeviation=".445" in="SourceGraphic"/></filter><filter x="-13.8%" y="-41.6%" width="127.5%" height="183.1%" filterUnits="objectBoundingBox" id="h"><feGaussianBlur stdDeviation=".445" in="SourceGraphic"/></filter><linearGradient x1="100%" y1="86.605%" x2="0%" y2="0%" id="i"><stop stop-color="#D9DEE4" offset="0%"/><stop stop-color="#F5F7FA" offset="100%"/></linearGradient><linearGradient x1="50%" y1="100%" x2="50%" y2="0%" id="j"><stop stop-color="#D9DEE4" offset="0%"/><stop stop-color="#F5F7FA" offset="100%"/></linearGradient><linearGradient x1="84.213%" y1="0%" x2=".061%" y2="100%" id="k"><stop stop-color="#CED3D9" offset="0%"/><stop stop-color="#F5F7FA" offset="100%"/></linearGradient><linearGradient x1="50%" y1="100%" x2="50%" y2="0%" id="l"><stop stop-color="#F5F7FA" offset="0%"/><stop stop-color="#D9DEE4" offset="100%"/></linearGradient><linearGradient x1="50%" y1="100%" x2="50%" y2="0%" id="m"><stop stop-color="#D9DEE4" offset="0%"/><stop stop-color="#F5F7FA" offset="100%"/></linearGradient><linearGradient x1="50%" y1="50%" x2="-2.859%" y2="68.029%" id="n"><stop stop-color="#DADFE5" offset="0%"/><stop stop-color="#FFF" stop-opacity=".443" offset="100%"/></linearGradient><linearGradient x1="50%" y1="100%" x2="50%" y2="0%" id="o"><stop stop-color="#D9DEE4" offset="0%"/><stop stop-color="#F5F7FA" stop-opacity="0" offset="100%"/></linearGradient><linearGradient x1="50%" y1="65.239%" x2="50%" y2="-27.173%" id="p"><stop stop-color="#D9DEE4" offset="0%"/><stop stop-color="#F5F7FA" offset="100%"/></linearGradient><linearGradient x1="50%" y1="100%" x2="50%" y2="0%" id="q"><stop stop-color="#D9DEE4" offset="0%"/><stop stop-color="#F5F7FA" offset="100%"/></linearGradient><linearGradient x1="100%" y1="18.52%" x2="4.334%" y2="90.19%" id="r"><stop stop-color="#D9DEE4" offset="0%"/><stop stop-color="#F5F7FA" offset="100%"/></linearGradient><linearGradient x1="100%" y1="60.449%" x2="0%" y2="46.236%" id="s"><stop stop-color="#D9DEE4" offset="0%"/><stop stop-color="#F5F7FA" offset="100%"/></linearGradient><linearGradient x1="0%" y1="23.623%" y2="100.446%" id="t"><stop stop-color="#D9DEE4" offset="0%"/><stop stop-color="#F5F7FA" offset="100%"/></linearGradient><linearGradient x1="50%" y1="0%" x2="50%" y2="100%" id="u"><stop stop-color="#5186F0" offset="0%"/><stop stop-color="#515FF0" offset="100%"/></linearGradient><filter x="-13.6%" y="-150%" width="127.3%" height="400%" filterUnits="objectBoundingBox" id="v"><feGaussianBlur stdDeviation="2" in="SourceGraphic"/></filter></defs><g fill="none" fill-rule="evenodd"><path d="M249.96 156.005c-21.778-47.238-69.55-80.025-124.98-80.025-55.43 0-103.202 32.787-124.98 80.026" fill="url(#a)"/><path d="M59.905 20.305c4.076 0 7.72 1.848 10.132 4.748.53-.1 1.076-.152 1.635-.152 4.843 0 8.768 3.91 8.768 8.734 0 4.823-3.925 8.733-8.768 8.733a8.829 8.829 0 0 1-1.972-.222 13.139 13.139 0 0 1-9.795 4.359c-3.853 0-7.318-1.65-9.724-4.279a8.844 8.844 0 0 1-1.583.142c-4.842 0-8.768-3.91-8.768-8.733s3.926-8.734 8.768-8.734c.417 0 .827.03 1.229.086a13.148 13.148 0 0 1 10.078-4.682z" fill="url(#b)"/><path d="M184.619 0c5.195 0 9.837 2.356 12.911 6.054a11.25 11.25 0 0 1 2.083-.193c6.17 0 11.172 4.985 11.172 11.135 0 6.15-5.002 11.135-11.172 11.135-.864 0-1.705-.098-2.513-.283a16.74 16.74 0 0 1-12.481 5.557 16.74 16.74 0 0 1-12.39-5.455c-.653.118-1.328.18-2.016.18-6.17 0-11.173-4.985-11.173-11.134 0-6.15 5.002-11.135 11.173-11.135.531 0 1.054.037 1.566.108A16.744 16.744 0 0 1 184.619 0z" fill="url(#c)"/><path fill="#C2C6CC" d="M67.995 105.455h2.62v-20.96h-2.62z"/><path d="M19.65 18.363c0 6.229-3.52 7.837-7.86 7.837-4.341 0-7.86-1.608-7.86-7.837C3.93 12.134 7.449 0 11.79 0c4.34 0 7.86 12.134 7.86 18.363" fill="url(#d)" transform="translate(57.515 71.395)"/><path fill="#C2C6CC" filter="url(#e)" d="M14.28 33.405L0 38.134l11.66-4.729z" transform="translate(57.515 71.395)"/><path fill="#C2C6CB" d="M46.302 120.1h1.781v-14.252h-1.781z"/><path d="M13.362 12.487c0 4.235-2.393 5.329-5.345 5.329s-5.345-1.094-5.345-5.33C2.672 8.252 5.065 0 8.017 0s5.345 8.251 5.345 12.487" fill="url(#f)" transform="translate(39.175 96.94)"/><path fill="#C2C6CB" filter="url(#g)" d="M9.71 22.715L0 25.931l7.928-3.216z" transform="translate(39.175 96.94)"/><path fill="#C2C6CB" d="M186.372 108.966h-1.782V94.713h1.782z"/><path d="M13.69 12.487c0 4.235-2.393 5.329-5.345 5.329S3 16.722 3 12.486C3 8.252 5.393 0 8.345 0s5.345 8.251 5.345 12.487" fill="url(#f)" transform="matrix(-1 0 0 1 193.93 82.5)"/><path fill="#C2C6CB" filter="url(#h)" d="M9.71 26.5L0 29.715 7.928 26.5z" transform="matrix(-1 0 0 1 193.93 82.5)"/><path d="M93.43 41.5a.5.5 0 0 1 .5.5v1h1a.5.5 0 1 1 0 1h-1v1a.5.5 0 1 1-1 0v-1h-1a.5.5 0 1 1 0-1h1v-1a.5.5 0 0 1 .5-.5z" fill="url(#i)"/><path d="M103.43 26.5a2.5 2.5 0 1 0 0 5 2.5 2.5 0 0 0 0-5zm0 1a1.5 1.5 0 1 1 0 3 1.5 1.5 0 0 1 0-3z" fill="url(#j)"/><path d="M160.43 40.5a.5.5 0 0 1 .5.5v1h1a.5.5 0 0 1 0 1h-1v1a.5.5 0 0 1-1 0v-1h-1a.5.5 0 0 1 0-1h1v-1a.5.5 0 0 1 .5-.5z" fill="url(#j)" transform="rotate(-45 160.43 42.5)"/><path d="M88.43 39l-.2.783A20.897 20.897 0 0 1 80.93 51M88.43 50l-.398.858A21.001 21.001 0 0 1 78.93 60.5" stroke="#EFEFEF" stroke-width=".5" stroke-linecap="round"/><path d="M74.434 57.101a.256.256 0 0 0-.218-.1.245.245 0 0 0-.201.124c-.734 1.286-1.685 1.729-2.523 2.12-.548.254-1.064.495-1.45.935-.432.487-.633 1.148-.633 2.075 0 .354.028.75.089 1.189-1.105.265-2.068.112-2.068.112v1.008a7.75 7.75 0 0 0 3.006-.605 5.388 5.388 0 0 0 1.302-.717c.044-.032.068-.052.068-.052 1.834-1.415 2.426-3.667 2.426-3.667 0 2.405-1.753 4.497-3.993 5.242.689.218 1.33.319 1.906.29.649-.032 1.225-.217 1.713-.552 1.035-.717 1.627-2.103 1.627-3.808.004-1.378-.39-2.724-1.051-3.594z" fill="url(#k)" transform="scale(1 -1) rotate(-84 3.677 0)"/><path d="M157.395 64h-64.8l8.766-28.586A2 2 0 0 1 103.273 34h43.443a2 2 0 0 1 1.912 1.414L157.395 64z" fill="url(#l)"/><path d="M95.3 62l7.54-24.586A2 2 0 0 1 104.752 36h40.485a2 2 0 0 1 1.912 1.414L154.69 62l-3.494 11h-52.8L95.3 62z" fill="url(#m)"/><path d="M142.977 44.763c9.634-1.705 15.59-3.002 17.095-13.908.09-.645-.272-1.56-.9-1.735-2.987-.839-6.627 4.56-.611 4.238 6.718-.358 2.171-4.602 10.926-4.513" stroke="url(#n)" stroke-width=".5" stroke-linecap="round" stroke-dasharray="3"/><circle fill="url(#j)" cx="145.43" cy="27" r="1.5"/><circle fill="#C2C6CC" cx="129.43" cy="57.5" r="1.5"/><path fill="url(#o)" d="M103.43 64l-13.5-48.5h70L146.831 64z"/><circle fill="url(#p)" cx="109.43" cy="45.5" r="4.5"/><path d="M139.716 53.671l-1.443 8.658A2 2 0 0 1 136.3 64H113.69a2 2 0 0 1-1.973-1.671l-1.443-8.658a2 2 0 0 0-1.973-1.67H93.93a2 2 0 0 0-1.995 2.13l1.737 26.4a2 2 0 0 0 1.995 1.87h58.655a2 2 0 0 0 1.995-1.87l1.737-26.4a2 2 0 0 0-1.995-2.13h-14.37a2 2 0 0 0-1.973 1.67" fill="url(#q)"/><path d="M148.932 60.52c.097-1.23.389-2.39.835-3.555a14.167 14.167 0 0 1 1.83-3.344c.778-1.044 1.696-2.057 2.769-2.896 1.055-.884 2.243-1.585 3.488-2.23l.146-.075c1.815-.942 4.057-.246 5.007 1.553a3.66 3.66 0 0 1-1.567 4.962c-.53.275-1.115.41-1.675.419-.895.011-1.833.048-2.734.26-.927.17-1.814.512-2.7.947-.887.437-1.722 1.028-2.499 1.732a11.175 11.175 0 0 0-2.04 2.445l-.028.047a.45.45 0 0 1-.832-.265" fill="url(#r)" transform="rotate(67 156.18 54.5)"/><path d="M94.896 28.609c.435.037.703.097 1.034.158a22.441 22.441 0 0 1 2.708.72c1.17.387 2.307.867 3.393 1.438a16.78 16.78 0 0 1 3.033 2.085 12.04 12.04 0 0 1 2.299 2.788.469.469 0 0 1-.142.633.432.432 0 0 1-.479-.007l-.028-.02a9.97 9.97 0 0 0-2.774-1.342 13.298 13.298 0 0 0-2.94-.478 17.966 17.966 0 0 0-4.4.375c-.238.046-.468.105-.697.162-.21.06-.482.126-.587.191-1.676 1.05-3.857.496-4.872-1.24-1.015-1.733-.48-3.991 1.198-5.04a3.44 3.44 0 0 1 2.128-.52l1.126.097z" fill="url(#s)" transform="rotate(18 98.68 32.5)"/><g><path fill="url(#t)" d="M0 0l3.075 8.714 3.607-1.668 3.187 2.66V5.601l3.494-1.35z" transform="matrix(-1 0 0 1 178.43 19)"/><path fill="#C3C6CB" d="M178.43 19l-9.869 5.601v4.105l2.355-3.099z"/></g><path d="M130.36 41.992c.329 0 .595.269.595.6v1.802c0 .331-.266.6-.595.6h-2.27v3.503h5.755c.33 0 .596.27.596.601V50.9c0 .331-.267.6-.596.6h-12.72a.598.598 0 0 1-.596-.6v-1.802c0-.331.266-.6.596-.6l3.986-.001v-3.503h-2.27a.598.598 0 0 1-.596-.6v-1.802c0-.331.267-.6.596-.6h7.519zm-9.948-6.06l1.768.262a.6.6 0 0 1 .503.682l-.467 3.21a.597.597 0 0 1-.676.507l-1.769-.262a.6.6 0 0 1-.503-.68l.468-3.211a.596.596 0 0 1 .676-.507zm10.836-.22a.597.597 0 0 1 .676.508l.468 3.21a.6.6 0 0 1-.503.682l-1.768.261a.596.596 0 0 1-.676-.507l-.468-3.21a.6.6 0 0 1 .503-.682zm-15.803-3.9l1.768.262a.6.6 0 0 1 .503.682l-.832 5.71a.596.596 0 0 1-.676.506l-1.768-.262a.6.6 0 0 1-.503-.681l.831-5.71a.597.597 0 0 1 .677-.506zm18.602-.72l.072.006h1.216c.328 0 .595.27.595.6v4.792c0 .332-.267.6-.595.6h-1.788a.598.598 0 0 1-.595-.6v-2.396h-13.799a.598.598 0 0 1-.595-.6v-1.801c0-.332.266-.6.595-.6h14.894zm-7.234-4.592c.33 0 .596.269.596.6v2.51c0 .332-.267.601-.596.601h-1.787a.598.598 0 0 1-.596-.6V27.1c0-.332.267-.601.596-.601h1.787z" fill="url(#u)"/><ellipse fill="#B5BDC7" style="mix-blend-mode:multiply" opacity=".3" filter="url(#v)" cx="125.18" cy="92" rx="22" ry="2"/></g></svg>