<svg class="icon" viewBox="0 0 1024 1024" xmlns="http://www.w3.org/2000/svg" width="200" height="200"><path d="M448.533 155.797c67.968 53.099 115.499 104.619 142.592 154.603 25.664 47.36 35.968 95.808 30.912 145.344l-.981 8.256 5.035-4.117a143.83 143.83 0 0 0 40.533-57.536l2.219-6.123 6.336-19.03c67.776 46.038 101.674 124.011 101.674 233.9 0 164.82-144.426 270.037-263.125 270.037-118.72 0-253.867-70.507-275.733-218.07-21.846-147.541 68.757-216.426 130.474-312.533 41.174-64.064 67.84-128.981 80.064-194.73z"/></svg>