<svg class="icon" viewBox="0 0 1024 1024" xmlns="http://www.w3.org/2000/svg" width="200" height="200"><path d="M451.854 95.981c.024-.064.048-.145.081-.145-.081-.064-.097 0-.081.145zM142.588 440.622c-.015.01-.03.021-.037.017.006.016.019.006.037-.017zm377.831 189.291c-15.925 0-28.761 5.461-38.505 16.381-9.746 10.92-14.619 27.388-14.619 49.404 0 21.667 5.003 38.092 15.011 49.272 10.005 11.182 22.71 16.772 38.113 16.772 15.401 0 28.04-5.548 37.917-16.643 9.876-11.095 14.814-27.735 14.814-49.926 0-21.927-4.81-38.286-14.423-49.075-9.617-10.789-22.385-16.185-38.308-16.185z"/><path d="M854.456 823.017c5.906-8.442 10.995-17.81 15.102-28.309C987.665 491.696 579.58 48.843 537.014 3.807c.1.165.207.363.298.529-2.627-2.792-4.105-4.329-4.105-4.329 6.212 28.647 10.144 55.329 12.242 80.458-.115-.867-.189-1.702-.307-2.569 2.983 33.158 2.553 63.407-.651 91.353-.496 4.229-1 8.467-1.62 12.597-.098.668-.23 1.33-.33 1.99-20.503 130.632-104.734 208.479-194.253 289.646-23.411-22.543-37.247-55.049-37.238-102.811.083-21.742 2.999-46.622 9.186-75.154l-.207.141c.074-.354.132-.685.207-1.048 0 0-63.854 41.285-116.968 119.19-.009-.008-.017-.025-.017-.025-.182.264-.355.563-.545.827-3.403 5.022-6.766 10.16-10.053 15.48-.157.239-.298.495-.447.735a430.615 430.615 0 0 0-8.847 15.075 376.645 376.645 0 0 0-1.991 3.569c-2.883 5.253-5.716 10.605-8.434 16.116-.133.272-.281.537-.414.809a407.245 407.245 0 0 0-8.095 17.627c-.627 1.446-1.223 2.917-1.833 4.371a380.69 380.69 0 0 0-5.89 14.935c-.528 1.421-1.074 2.808-1.586 4.229-1.09 3.058-2.115 6.163-3.139 9.285-.025.066-.05.132-.066.198-1.049 3.172-2.098 6.345-3.064 9.582-.396 1.306-.744 2.66-1.123 3.982a368.612 368.612 0 0 0-4.296 16.331 316.228 316.228 0 0 0-1.338 5.69c-1.537 6.873-2.958 13.812-4.122 20.933 0 .05-.017.1-.017.148a329.55 329.55 0 0 0-1.727 11.696c-.032.266-.065.529-.099.794a352.944 352.944 0 0 0-1.272 11.283c-.05.43-.083.86-.124 1.298a391.231 391.231 0 0 0-.884 11.044c-.033.545-.066 1.106-.091 1.651a358.25 358.25 0 0 0-.504 10.922l-.05 1.949a366.226 366.226 0 0 0-.124 10.87v2.164c.033 3.618.115 7.253.256 10.912.025.769.042 1.545.083 2.313.157 3.659.363 7.344.62 11.044.074.793.115 1.57.173 2.362.281 3.733.636 7.492 1.024 11.268.083.784.157 1.553.248 2.33.413 3.849.917 7.723 1.454 11.614.107.734.207 1.462.306 2.197.578 3.989 1.23 8.028 1.933 12.076.124.645.214 1.289.338 1.933a392.635 392.635 0 0 0 2.495 12.771c.099.479.19.958.281 1.438a451.803 451.803 0 0 0 3.18 13.745c.05.231.1.454.157.677 4.874 19.627 11.234 39.84 19.346 60.657 4.097 10.499 9.186 19.866 15.101 28.309 69.223 121.396 265.021 200.978 265.021 200.978v-.008c-.676-.277-56.816-23.185-119.421-62.98 62.605 39.796 118.746 62.702 119.421 62.973l.033.016v-.033c.041.018.083.033.083.033 3.709-34.05 18.495-57.277 40.477-73.716-.017-.018-.042-.018-.058-.033.124-.083.256-.166.38-.256 4.436-3.296 9.161-6.32 14.15-9.104.264-.149.528-.29.793-.438 4.998-2.75 10.251-5.261 15.745-7.558.165-.066.314-.141.479-.207 39.089 16.208 66.787 42.806 72.065 91.312 0 0 .024-.016.033-.016v.016s42.739-17.38 95.334-48.258c-.066.066-.132.141-.198.215 60.06-35.229 133.083-88.122 170.048-152.933zM312.641 952.532zm82.736-161.03h-38.636v-83.667h-75.704v83.667h-38.636V600.154h38.636v75.313h75.704v-75.313h38.636v191.348zM587.9 768.594c-16.796 17.448-39.245 26.171-67.352 26.171-28.454 0-51.08-8.679-67.872-26.038-16.795-17.361-25.192-41.268-25.192-71.726 0-19.489 2.915-35.847 8.746-49.075 4.35-9.746 10.289-18.491 17.816-26.236 7.526-7.743 15.771-13.486 24.734-17.229 11.92-5.045 25.669-7.57 41.246-7.57 28.192 0 50.751 8.747 67.678 26.235 16.922 17.49 25.386 41.813 25.386 72.965.001 30.89-8.398 55.058-25.19 72.503zm41.637-136.071v-32.369h152.061v32.369H724.95v158.979h-38.635V632.523h-56.778z"/></svg>