<svg class="icon" viewBox="0 0 1024 1024" xmlns="http://www.w3.org/2000/svg" width="200" height="200"><path d="M831.39 882.59L141.41 404.724l699.733-268.19 24.38 68.266-568.075 219.429 577.828 399.847z" fill="#FFE27F"/><path d="M0 416.914a226.743 226.743 0 1 0 453.486 0 226.743 226.743 0 1 0-453.486 0zM643.6569999999999 833.829a190.171 190.171 0 1 0 380.343 0 190.171 190.171 0 1 0-380.343 0zM682.6669999999999 170.667a170.667 170.667 0 1 0 341.333 0 170.667 170.667 0 1 0-341.333 0z" fill="#FFC600"/></svg>