<svg class="icon" viewBox="0 0 1024 1024" xmlns="http://www.w3.org/2000/svg" width="200" height="200"><path d="M870 64c49.706 0 90 40.367 90 90.162v540.972c0 49.795-40.294 90.162-90 90.162H418.928L300.78 943.892c-13.213 17.737-38.276 21.385-55.98 8.148a40.096 40.096 0 0 1-16.077-32.114v-134.63H154c-49.706 0-90-40.367-90-90.162V154.162C64 104.367 104.294 64 154 64h716zm0 60.108H154c-16.569 0-30 13.456-30 30.054v540.972c0 16.598 13.431 30.054 30 30.054h84.724c27.614 0 50 22.426 50 50.09v84.3l85.118-114.259a49.97 49.97 0 0 1 40.07-20.131H870c16.569 0 30-13.456 30-30.054V154.162c0-16.598-13.431-30.054-30-30.054zM272 334.486c38.66 0 70 31.396 70 70.126 0 38.73-31.34 70.126-70 70.126s-70-31.397-70-70.126c0-38.73 31.34-70.126 70-70.126zm240 0c38.66 0 70 31.396 70 70.126 0 38.73-31.34 70.126-70 70.126s-70-31.397-70-70.126c0-38.73 31.34-70.126 70-70.126zm240 0c38.66 0 70 31.396 70 70.126 0 38.73-31.34 70.126-70 70.126s-70-31.397-70-70.126c0-38.73 31.34-70.126 70-70.126z"/></svg>