<svg class="icon" viewBox="0 0 1024 1024" xmlns="http://www.w3.org/2000/svg" width="200" height="200"><path d="M531.56 1000.06c-16.732 0-33.464-.944-50.196-2.829-207.62-22.86-374.705-190.18-397.8-397.8-14.14-128.436 26.63-257.109 112.411-352.552 85.546-95.68 208.327-150.59 336.763-150.59 85.075 0 276.198-.235 362.45-.47 25.217-.472 47.134 9.426 64.337 26.63 17.203 17.203 26.63 40.062 26.394 64.335-.471 86.018-1.414 276.198-1.414 361.037a452.568 452.568 0 0 1-452.945 452.238zm359.858-809.74c-87.902 0-275.02.47-358.915.47-101.571 0-198.665 43.363-266.536 119.01-68.813 76.827-100.157 175.806-88.845 279.262 18.146 164.022 150.353 296.229 314.375 314.375 103.22 11.548 202.67-20.031 279.262-88.845 75.648-67.871 119.01-164.965 119.01-266.535.235-83.661 1.178-269.835 1.65-357.738z"/><path d="M374.373 607.444c-12.962 0-23.567-10.605-23.567-23.567V475.001c0-12.962 10.605-23.567 23.567-23.567s23.566 10.605 23.566 23.567v108.876c0 13.198-10.605 23.567-23.566 23.567zm217.517 0c-12.962 0-23.566-10.605-23.566-23.567V475.001c0-12.962 10.604-23.567 23.566-23.567s23.566 10.605 23.566 23.567v108.876c0 13.198-10.369 23.567-23.566 23.567z"/></svg>