<svg class="icon" viewBox="0 0 1024 1024" xmlns="http://www.w3.org/2000/svg" width="200" height="200"><path d="M924.443 287.707l-152.625-.082 41.34-189.528c.905-4.11-2.218-7.972-6.41-7.972H635.22a6.516 6.516 0 0 0-6.41 5.178L586.728 287.46l-82.107-.082 41.423-189.28c.904-4.11-2.219-7.973-6.41-7.973H368.107a6.516 6.516 0 0 0-6.411 5.178l-41.999 191.993-135.529-.164c-1.561 0-3.04.575-4.191 1.479-1.151.904-1.973 2.219-2.302 3.78l-34.683 171.282c-.822 4.11 2.3 7.89 6.493 7.89h129.94l-14.383 65.587-131.83-.082c-3.124 0-5.836 2.219-6.412 5.26L92.035 713.527c-.822 4.11 2.3 7.89 6.492 7.89H224.77l-44.3 202.431c-.903 4.11 2.22 7.972 6.33 7.972l171.28 2.055h.083a6.516 6.516 0 0 0 6.41-5.178l45.287-207.28h82.024l-44.3 202.431c-.904 4.11 2.22 7.972 6.329 7.972l171.281 2.055h.082a6.516 6.516 0 0 0 6.411-5.178l45.286-207.362H835.35a6.516 6.516 0 0 0 6.41-5.178l37.314-170.624c.904-4.11-2.219-7.972-6.41-7.972l-155.42-.165 14.384-65.915H887.21a6.516 6.516 0 0 0 6.41-5.178l37.314-170.624c.822-4.11-2.383-7.972-6.492-7.972zM532.155 537.314l-82.024-.082 14.383-65.669h82.107l-14.466 65.751z"/></svg>