<svg class="icon" viewBox="0 0 1024 1024" xmlns="http://www.w3.org/2000/svg" width="200" height="200"><path d="M447.488 764.928H249.856q-27.648-2.048-42.496-23.04t-17.92-46.592q3.072-25.6 17.92-41.984t42.496-18.432h197.632v-64.512l-197.632-1.024q-27.648-2.048-42.496-19.456t-17.92-44.032q3.072-25.6 17.92-41.984t42.496-18.432h147.456L260.096 203.776q-10.24-12.288-19.456-31.232t-8.192-41.472q5.12-28.672 20.48-46.592t57.344-23.04q24.576 2.048 44.032 16.896t31.744 32.256l155.648 284.672 171.008-286.72q12.288-17.408 31.744-30.72T788.48 61.44q15.36 1.024 28.16 4.096t22.528 10.24 16.384 20.48 9.728 34.816q0 29.696-20.48 56.32L686.08 445.44h150.528q26.624 2.048 41.984 18.432T896 505.856q-2.048 26.624-17.92 45.056t-42.496 20.48L640 572.416v62.464h196.608q26.624 2.048 41.984 20.48T896 699.392q-2.048 26.624-17.408 44.544t-41.984 19.968L640 762.88v108.544q-4.096 87.04-95.232 87.04-45.056 0-70.144-21.504t-27.136-65.536V764.928z"/></svg>