<svg class="icon" viewBox="0 0 1024 1024" xmlns="http://www.w3.org/2000/svg" width="200" height="200"><path d="M474.453 884.053c-225.28 0-409.6-184.32-409.6-409.6s184.32-409.6 409.6-409.6 409.6 184.32 409.6 409.6-184.32 409.6-409.6 409.6zm0-68.266c187.734 0 341.334-153.6 341.334-341.334S662.187 133.12 474.453 133.12 133.12 286.72 133.12 474.453s153.6 341.334 341.333 341.334zM727.04 870.4c-13.653-13.653-10.24-37.547 3.413-47.787s37.547-10.24 47.787 3.414l64.853 78.506c13.654 13.654 10.24 37.547-3.413 47.787s-37.547 10.24-47.787-3.413L727.04 870.4z"/></svg>