<svg class="icon" viewBox="0 0 1024 1024" xmlns="http://www.w3.org/2000/svg" width="200" height="200"><path d="M562.052 901.93c0 96.596-74.087 46.73-74.087 46.73L167.131 678.73h-49.55c-30.697 0-55.563-25.32-55.563-56.566v-226.23c0-31.246 24.867-56.56 55.563-56.56h59.27l311.114-263.93s74.09-50.275 74.09 47.126V901.93h-.003zm166.67-242.064c92.613-75.404 86.43-218.378 0-282.79-33.939-20.417-55.548 47.138-55.548 47.138s86.42 108.404 0 188.525c-16.986 21.998 15.427 67.561 55.548 47.127zM775.03 216.84c-12.343-11.01-72.527 29.846-37.036 65.974 183.651 155.543 186.728 301.65 0 461.89-27.792 26.712 9.244 76.997 37.036 65.983 254.632-117.835 243.846-483.88 0-593.847zm0 0"/></svg>